<?xml version="1.0" standalone="no"?>
<!DOCTYPE svg PUBLIC "-//W3C//DTD SVG 20010904//EN"
 "http://www.w3.org/TR/2001/REC-SVG-20010904/DTD/svg10.dtd">
<svg version="1.0" xmlns="http://www.w3.org/2000/svg"
 width="460.000000pt" height="460.000000pt" viewBox="0 0 460.000000 460.000000"
 preserveAspectRatio="xMidYMid meet">
<metadata>
Created by potrace 1.11, written by Peter Selinger 2001-2013
</metadata>
<g transform="translate(0.000000,460.000000) scale(0.100000,-0.100000)"
fill="#000000" stroke="none">
<path d="M1448 3695 c-2 -1 -32 -5 -68 -8 -199 -18 -422 -155 -546 -337 -47
-68 -48 -70 -91 -70 l-43 0 0 -118 0 -117 713 0 c391 0 717 -1 722 -2 7 -2 10
-406 9 -1188 l-2 -1185 114 0 114 0 0 1184 c0 938 3 1185 13 1188 6 2 315 3
685 3 668 -1 673 0 677 20 2 11 3 63 2 115 l-2 95 -46 3 c-39 3 -48 7 -64 35
-68 118 -194 234 -321 297 -267 132 -579 105 -809 -69 -77 -59 -161 -149 -201
-216 -23 -40 -24 -41 -76 -39 -29 1 -56 2 -59 3 -3 1 -23 26 -43 56 -119 179
-339 319 -536 340 -76 9 -139 13 -142 10z m147 -267 c28 -6 74 -22 104 -35 57
-24 144 -90 137 -101 -3 -5 -592 -8 -704 -3 -31 1 -21 14 46 60 64 42 147 76
213 86 24 4 45 8 46 9 6 5 112 -5 158 -16z m1473 2 c68 -12 182 -57 182 -71 0
-5 6 -9 13 -9 9 0 77 -55 77 -63 0 -6 -726 1 -729 7 -1 5 11 21 28 37 17 15
31 26 31 23 0 -3 12 3 28 14 57 41 229 85 292 76 8 -2 44 -8 78 -14z"/>
<path d="M479 2795 c-4 -40 -3 -1739 1 -1745 3 -4 183 -7 402 -7 l396 0 1 210
c1 116 2 211 4 213 1 1 25 4 52 7 355 38 616 340 600 696 -13 294 -224 548
-514 618 -55 13 -138 16 -503 17 -286 1 -438 -2 -439 -9z m889 -476 c26 -13
54 -39 73 -66 26 -38 32 -55 32 -107 2 -78 -22 -131 -78 -174 -135 -103 -336
1 -335 173 0 34 32 110 58 138 57 63 162 78 250 36z"/>
<path d="M2834 2702 l-61 -3 1 -879 1 -880 123 0 122 0 0 535 c0 503 1 535 18
536 9 0 222 2 472 3 l455 2 57 26 c62 29 145 104 167 153 7 17 18 38 23 48 5
11 12 49 15 86 12 142 -65 274 -197 339 -51 25 -65 27 -205 30 -242 4 -925 7
-991 4z m1089 -246 c42 -17 65 -44 70 -81 6 -42 -10 -82 -43 -105 -27 -19 -44
-20 -479 -20 l-451 0 0 110 0 110 435 0 c345 0 442 -3 468 -14z"/>
</g>
</svg>
